<?xml version="1.0" encoding="utf-8"?>
<!-- Generator: Adobe Illustrator 21.0.0, SVG Export Plug-In . SVG Version: 6.00 Build 0)  -->
<svg version="1.1" id="Camada_6" xmlns="http://www.w3.org/2000/svg" xmlns:xlink="http://www.w3.org/1999/xlink" x="0px" y="0px"
	 viewBox="0 0 1074 207.3" style="enable-background:new 0 0 1074 207.3;" xml:space="preserve">
<style type="text/css">
	.st0{fill:#FFFFFF;}
</style>
<title>DEEP</title>
<path class="st0" d="M336,85.9V155c0.5,3.4,1.4,6.7,2.7,9.9c4.3,10.8,14,18.6,25.5,20.5h75.7c26.5-2,37.9-12.6,45.4-20.5l1.2-1.3
	c0,0,0,0,0.1-0.1c1-1.1,2-2.2,2.9-3.1l0,0c10-9.1,25.1-9.4,35.4-0.7c3.3,4,5.1,9,5.1,14.2v28.5c0,2.8-2.2,5-5,5H277
	c-2.8,0-5-2.2-5-5V5c0-2.8,2.2-5,5-5h54c2.8,0,5,2.2,5,5v62.9c4.3,4.8,8.6,9.1,13,13.1c67.9,62.1,145.4,36.1,145.5,3.9
	C492.3,34.8,349,39.8,349,39.8V5c0-2.8,2.2-5,5-5h171c2.8,0,5,2.2,5,5v144.9h-33.2c-37.2-1.4-103-10.2-147.8-50.6
	C344.4,95.1,340,90.7,336,85.9z"/>
<path class="st0" d="M608,85.9V155c0.5,3.4,1.4,6.7,2.7,9.9c4.3,10.8,14,18.6,25.5,20.5h75.7c26.5-2,37.9-12.6,45.4-20.5l1.2-1.3
	c0,0,0,0,0.1-0.1c1-1.1,2-2.2,2.9-3.1l0,0c10-9.1,25.1-9.4,35.4-0.7c3.3,4,5.1,9,5.1,14.2v28.5c0,2.8-2.2,5-5,5H549
	c-2.8,0-5-2.2-5-5V5c0-2.8,2.2-5,5-5h54c2.8,0,5,2.2,5,5v62.9c4.3,4.8,8.6,9.1,13,13.1c67.9,62.1,145.4,36.1,145.5,3.9
	C764.3,34.8,621,39.8,621,39.8V5c0-2.8,2.2-5,5-5h171c2.8,0,5,2.2,5,5v144.9h-33.2c-37.2-1.4-103-10.2-147.8-50.6
	C616.4,95.1,612,90.7,608,85.9z"/>
<path class="st0" d="M258,5v197.3c0,2.8-2.2,5-5,5h-54c-2.8,0-5-2.2-5-5v-64.1c0-0.1,0-0.2,0-0.3c-1.6-14.8-6.1-29.1-13-42.3
	C145.1,28.8,52.4,29,46.3,115.7c-0.2,2.7-0.2,5.3,0,8c1.9,29.8,24.4,60.1,59.6,65.9c8.3,1.3,16.8,1.3,25.2,0
	c15.2-2.3,32-8.9,49.9-21.1v33.8c0,2.8-2.2,5-5,5H5c-2.8,0-5-2.2-5-5V2.9c0-1.4,1.2-2.6,2.6-2.6c0,0,0,0,0,0l0,0
	c0.3,0,0.6-0.1,0.8-0.1C3.9,0.1,4.3,0,4.8,0c5.1,0,10.1,0.1,15.1,0.3c77.5,3.4,131.6,31.9,161.1,69c4.9,6.2,9.3,12.8,13,19.7V5
	c0-2.8,2.2-5,5-5h54C255.8,0,258,2.2,258,5z"/>
<path class="st0" d="M816,202.3V5c0-2.8,2.2-5,5-5h54c2.8,0,5,2.2,5,5v64.1c0,0.1,0,0.2,0,0.3c1.6,14.8,6.1,29.1,13,42.3
	c35.8,66.8,128.6,66.6,134.7-20.1c0.2-2.7,0.2-5.3,0-8c-1.9-29.8-24.4-60.1-59.6-65.9c-8.3-1.3-16.8-1.3-25.2,0
	c-15.2,2.3-32,8.9-49.9,21.1V5c0-2.8,2.2-5,5-5h171c2.8,0,5,2.2,5,5v199.4c0,1.4-1.2,2.6-2.6,2.6l0,0c-0.3,0-0.6,0.1-0.8,0.1
	c-0.4,0.1-0.9,0.2-1.4,0.2c-5.1,0-10.1-0.1-15.1-0.3c-77.5-3.4-131.6-31.9-161.2-69c-4.9-6.2-9.3-12.8-13-19.7v84.1c0,2.8-2.2,5-5,5
	h-54C818.2,207.4,816,205.1,816,202.3C816,202.3,816,202.3,816,202.3z"/>
</svg>
