<?xml version="1.0" encoding="utf-8"?>
<!-- Generator: Adobe Illustrator 21.0.0, SVG Export Plug-In . SVG Version: 6.00 Build 0)  -->
<svg version="1.1" id="Camada_2" xmlns="http://www.w3.org/2000/svg" xmlns:xlink="http://www.w3.org/1999/xlink" x="0px" y="0px"
	 viewBox="0 0 198 54" style="enable-background:new 0 0 198 54;" xml:space="preserve">
<style type="text/css">
	.st0{fill:#FFFFFF;}
</style>
<g>
	<path class="st0" d="M63.2,23.8v12.3c0.1,0.6,0.2,1.2,0.5,1.8c0.8,1.9,2.5,3.3,4.5,3.7h13.5c4.7-0.4,6.8-2.2,8.1-3.7l0.2-0.2
		c0,0,0,0,0,0c0.2-0.2,0.4-0.4,0.5-0.6l0,0c1.8-1.6,4.5-1.7,6.3-0.1c0.6,0.7,0.9,1.6,0.9,2.5v5.1c0,0.5-0.4,0.9-0.9,0.9H52.7
		c-0.5,0-0.9-0.4-0.9-0.9V9.4c0-0.5,0.4-0.9,0.9-0.9h9.6c0.5,0,0.9,0.4,0.9,0.9v11.2c0.8,0.9,1.5,1.6,2.3,2.3
		c12.1,11.1,25.9,6.4,25.9,0.7c-0.4-8.9-25.9-8-25.9-8V9.4c0-0.5,0.4-0.9,0.9-0.9h30.5c0.5,0,0.9,0.4,0.9,0.9v25.8h-5.9
		c-6.6-0.2-18.4-1.8-26.3-9C64.7,25.5,63.9,24.7,63.2,23.8z"/>
	<path class="st0" d="M111.6,23.8v12.3c0.1,0.6,0.2,1.2,0.5,1.8c0.8,1.9,2.5,3.3,4.5,3.7h13.5c4.7-0.4,6.8-2.2,8.1-3.7l0.2-0.2
		c0,0,0,0,0,0c0.2-0.2,0.4-0.4,0.5-0.6l0,0c1.8-1.6,4.5-1.7,6.3-0.1c0.6,0.7,0.9,1.6,0.9,2.5v5.1c0,0.5-0.4,0.9-0.9,0.9h-44.2
		c-0.5,0-0.9-0.4-0.9-0.9V9.4c0-0.5,0.4-0.9,0.9-0.9h9.6c0.5,0,0.9,0.4,0.9,0.9v11.2c0.8,0.9,1.5,1.6,2.3,2.3
		c12.1,11.1,25.9,6.4,25.9,0.7c-0.4-8.9-25.9-8-25.9-8V9.4c0-0.5,0.4-0.9,0.9-0.9h30.5c0.5,0,0.9,0.4,0.9,0.9v25.8h-5.9
		c-6.6-0.2-18.4-1.8-26.3-9C113.1,25.5,112.4,24.7,111.6,23.8z"/>
	<path class="st0" d="M49.3,9.4v35.2c0,0.5-0.4,0.9-0.9,0.9h-9.6c-0.5,0-0.9-0.4-0.9-0.9V33.1c0,0,0,0,0-0.1
		c-0.3-2.6-1.1-5.2-2.3-7.5c-6.4-11.9-22.9-11.9-24,3.6c0,0.5,0,0.9,0,1.4c0.3,5.3,4.3,10.7,10.6,11.7c1.5,0.2,3,0.2,4.5,0
		c2.7-0.4,5.7-1.6,8.9-3.8v6c0,0.5-0.4,0.9-0.9,0.9H4.2c-0.5,0-0.9-0.4-0.9-0.9V9c0-0.2,0.2-0.5,0.5-0.5l0,0l0,0c0.1,0,0.1,0,0.1,0
		c0.1,0,0.2,0,0.2,0c0.9,0,1.8,0,2.7,0.1c13.8,0.6,23.4,5.7,28.7,12.3c0.9,1.1,1.7,2.3,2.3,3.5v-15c0-0.5,0.4-0.9,0.9-0.9h9.6
		C48.9,8.5,49.3,8.9,49.3,9.4z"/>
	<path class="st0" d="M148.7,44.6V9.4c0-0.5,0.4-0.9,0.9-0.9h9.6c0.5,0,0.9,0.4,0.9,0.9v11.4c0,0,0,0,0,0.1c0.3,2.6,1.1,5.2,2.3,7.5
		c6.4,11.9,22.9,11.9,24-3.6c0-0.5,0-0.9,0-1.4c-0.3-5.3-4.3-10.7-10.6-11.7c-1.5-0.2-3-0.2-4.5,0c-2.7,0.4-5.7,1.6-8.9,3.8v-6
		c0-0.5,0.4-0.9,0.9-0.9h30.5c0.5,0,0.9,0.4,0.9,0.9v35.5c0,0.2-0.2,0.5-0.5,0.5l0,0c-0.1,0-0.1,0-0.1,0c-0.1,0-0.2,0-0.2,0
		c-0.9,0-1.8,0-2.7-0.1c-13.8-0.6-23.4-5.7-28.7-12.3c-0.9-1.1-1.7-2.3-2.3-3.5v15c0,0.5-0.4,0.9-0.9,0.9h-9.6
		C149.1,45.5,148.7,45.1,148.7,44.6L148.7,44.6z"/>
</g>
</svg>
